<svg xmlns="http://www.w3.org/2000/svg" xmlns:xlink="http://www.w3.org/1999/xlink" version="1.1" id="layer" x="0px" y="0px" style="enable-background:new 0 0 652 652;" xml:space="preserve" viewBox="20.04 283.14 600.09 77.06">
<style type="text/css">
	.st0{fill:#E50012;}
	.st1{fill:#FFFFFF;}
</style>
<g>
	<path d="M365.9,313h-13.2c-2.4,0-3.7,1.5-4.1,2.6c-0.5,1.6-4.1,12.3-4.6,13.7c-0.5,1.4,0,2.1,1.8,2.1h13.8c1.4,0,3.1-1,3.7-2.6   c0.5-1.6,4-11.9,4.5-13.5C368.4,313.5,367.4,313,365.9,313 M507.6,312.3c-0.7-0.4-2.4-0.4-3.4-0.4c-1,0-10.1,0-11.1,0   c-1.8,0-4.1,0.1-4.6,1.4c-0.6,1.7-1.1,2.8-1.1,2.8h19.9c0,0,0.7-1.6,0.9-2C508.3,313.6,508.3,312.6,507.6,312.3 M619.8,305.9   c1.4-4.4-1.9-9.2-5.5-9.2h-15.5c0,0,0.5-1.4,1.1-3c2.9-8-8.8-7.9-8.8-7.9h-27.2c-12.2,0-14.7,13.4-14.7,13.4s-0.2-5-15.9-5   c-8.7,0-27.5-0.1-27.5-0.1s-16.3,0.3-28.2,0.4c-9.8,0.1-13,2.5-13,2.5s0.8-2.1,2.1-6.3c1.8-6.2-8.9-5.1-8.9-5.1s-30.5,0-33,0   c-4.2,0-6,1.5-7.1,4.6c-1.2,3.1-2.8,8.3-2.8,8.3s-3.4,0.4-5.2,6.1c0,0.1,0,0.1,0,0.2c-1.5-2.5-3.4-7.2-12.5-9.4   c-5.9-1.4-28-1.4-36-1.5c-8-0.1-18.5-0.3-25.2,0c-5.6,0.2-11.9-0.1-17.2,2.2c-3.4,1.4-5,3.3-5,3.3s-1.9-1.3-3.3-2.1   c-1.5-0.8-5.8-2.2-10.8-2.9c-8.7-1.2-16.4-0.6-22.5-0.3c-6.1,0.3-12.2,2.3-12.2,2.3l-123.9-0.1c0,0-0.1-3.2-0.9-4.5   c-1-1.8-3.4-5.6-7.6-7.2c-5.3-1.9-18-1.4-18-1.4H44.8c-2.5,0-7,1.8-8.6,6.4c-1.8,5.2,0.3,8.2,0.3,8.2l-10.8,33.1c0,0-5,2.7-5.6,7.9   c-0.7,5.8,4.8,9.4,8.5,9.4h68.9c18.5,0,19.4-2.9,19.4-2.9s0.6,5,1.1,8.4c0.6,3.4,2.5,5.7,3.8,5.7h74.2c12.3,0,18.8-12.1,18.8-12.1   h154.8c0,0,0.4,2.6,1,6.8c0.6,4.2,4.3,6.1,7,6.1h49.8c17.3,0,21.2-11.3,21.8-13.1l1.4-3.7c0,0,2.9,3.6,13.7,3.6h58.2   c5.4,0,8.8-1.1,11.3-2.9c1.3-0.9,6.1-6.2,6.1-6.2s-1,1.4,1.2,4.6c2.9,4.2,11.2,4.6,15.1,4.7c3.9,0.1,37.5,0.2,42.6,0.2   c5,0,9-2.6,10.7-4.9c3.9-5,5.3-9.6,7.4-13.7c2.4-4.8,0.2-11-5.4-9.9C615.7,318.6,617.4,313.6,619.8,305.9 M103.4,339.1H31.8   c0,0,4.2-2.5,6.2-8.3c0.8-2.5,10.1-30.5,10.9-32.7c1.2-3.7-1.8-5.7-1.8-5.7h64.4c8.8,0,14,0.6,15.9,1.6c3.9,1.8,5.2,6.5,4.3,9.9   c-1.9,7.1-4.1,12.6-6.3,18.4C121.3,333.3,115.6,339.1,103.4,339.1 M202.1,346.1c-2,2-6.5,5.7-12.1,5.7h-62.7l-1.2-9.3   c0,0,4,1.8,9.9,1.8h29.8c9.5,0,9-5.2,9-5.2s-32.7,0.6-38.9,0c-6.2-0.6-6.5-5.9-5.9-8.3c0.6-2.4,6.8-20,7.2-21.5   c0.4-1.6-0.6-4.1-0.6-4.1h32.4c0,0-2.2,1.3-3,3.5c-0.5,1.3-5.6,16.2-6.4,18.8c-0.8,2.6-0.4,4,0.8,4h15.2c1.6,0,2.8-1,3.6-3.6   c0.9-2.6,5.4-15.8,6.1-18c0.8-2.5-1-4.7-1-4.7h34.8c0,0-2.2,2.7-2.8,4.5c-0.6,1.8-3.2,9.5-6,18   C207.6,336.1,204.1,344.1,202.1,346.1 M307.3,314c-0.7,2.3-6.1,17.9-6.9,20.5c-0.8,2.6,1.5,4.7,1.5,4.7h-35.7c0,0,2.8-1.7,3.8-4.7   c0.7-2.1,5.7-17.3,6.5-19.7c0.8-2.5-1.2-4.1-2.6-4.1c-1.4,0-6.8-0.4-10.5-0.2c-3.4,0.2-5.5,2.1-6.3,4.4c-0.5,1.4-6.4,17.9-7,19.9   c-0.6,2,0.8,4.3,0.8,4.3h-36c0,0,3.2-2,4.4-5.3c0.5-1.4,6.2-18.1,7.3-21.5c2-5.8-0.2-7.1-0.2-7.1h34l-0.4,1.5c0,0,7.9-2.5,11.6-3.1   c3-0.5,11.2-1.6,23.2-0.3C306.9,304.6,308,311.3,307.3,314 M425.9,292.6h31.3l-2.5,7.6h-31.4L425.9,292.6z M323,339.1   c-6.9,0-13.7-2.9-11.9-8.3c1.3-3.9,4-12.4,5.1-15.5c1.2-3.5,2.8-8.6,12.6-10.8c10.1-2.2,17.4-1.6,32.8-1.6c15.5,0,29.5,0.4,34,2.3   c4.5,1.9,5.4,6.4,4.3,9.5c-1.4,4-4.7,13.4-6,16.8c-1.6,4.2-7.1,7.7-15.2,7.7H323z M439.7,345.2c-2,6-10,7.7-14.8,7.7h-45.1   l-1.2-10.5c0,0,7.5,2.4,9.5,2.4c2,0,14.7,0.6,17.3,0c2.6-0.6,4.5-3.4,5.7-7.5c0.8-2.8,7.8-22.9,8.8-25.8c1.3-4-0.5-5.6-0.5-5.6H453   C453,305.9,441.7,339.1,439.7,345.2 M538.4,314.8c-0.7,2-2.1,6.7-3.8,11.4l-50.6,0.2c0,0-0.7,2.1-0.9,2.8c-0.2,0.6-0.4,1.3-0.1,1.7   c0.3,0.4,1.2,0.6,3.1,0.6c1.8,0,34.8,0,37.6,0c7.4,0.1,9.3-0.8,9.3-0.8l-7.9,8.6h-6.7h-55.8c-6.9,0-13-3.1-11.7-6.9   c1.4-3.9,4.4-12.9,5.5-16.3c1-3.2,1.8-9.2,11.9-11.4c10.1-2.2,17.4-1.6,32.8-1.6c15.5,0,29.5,0.4,34,2.3S539.6,311.4,538.4,314.8    M609.1,310.6h-23.8c0,0-5,14.7-5.7,16.9c-0.7,2.2-0.9,3.8,0.4,3.8c1.3,0,16.7,0.3,19.5,0c2.8-0.3,8-2.1,8-2.1l-5,9.9h-45.8   c-10.1,0-8.1-6.5-6.9-10.4c1.6-5,5.9-17.7,5.9-17.7h-13.3l1.9-5.8h13.3l3.3-9.9h29.4l-3.3,9.9h23.8L609.1,310.6z M95.3,302.3H79.2   l-9.6,28.9H86c0.8,0,2.9-0.8,3.7-2.6c0.8-1.8,6.7-18.8,8.1-23.4C98.7,302.6,96.7,302.3,95.3,302.3"/>
	<path class="st0" d="M127.2,294c-2-0.9-7.2-1.6-15.9-1.6H46.9c0,0,3.1,2,1.8,5.7c-0.7,2.2-10,30.2-10.9,32.7   c-1.9,5.7-6.2,8.3-6.2,8.3h71.6c12.3,0,17.9-5.8,21.9-16.8c2.1-5.8,4.4-11.3,6.3-18.4C132.5,300.4,131.1,295.8,127.2,294    M97.9,305.2c-1.4,4.6-7.3,21.6-8.1,23.4c-0.8,1.8-2.9,2.6-3.7,2.6H69.6l9.6-28.9h16.1C96.7,302.3,98.7,302.6,97.9,305.2    M219.2,305.2h-34.8c0,0,1.8,2.2,1,4.7c-0.7,2.1-5.2,15.4-6.1,18c-0.8,2.6-2,3.6-3.6,3.6h-15.2c-1.2,0-1.6-1.4-0.8-4   c0.8-2.6,5.9-17.5,6.4-18.8c0.8-2.2,3-3.5,3-3.5h-32.4c0,0,1,2.5,0.6,4.1c-0.4,1.6-6.6,19.2-7.2,21.5c-0.6,2.4-0.3,7.7,5.9,8.3   c6.2,0.6,38.9,0,38.9,0s0.5,5.2-9,5.2h-29.8c-5.9,0-9.9-1.8-9.9-1.8l1.2,9.3h62.7c5.6,0,10.1-3.7,12.1-5.7c2-2,5.5-10,8.3-18.5   c2.8-8.5,5.4-16.2,6-18C217,307.9,219.2,305.2,219.2,305.2 M294.8,303.3c-12.1-1.3-20.2-0.3-23.2,0.3c-3.7,0.7-11.6,3.1-11.6,3.1   l0.4-1.5h-34c0,0,2.2,1.3,0.2,7.1c-1.1,3.4-6.8,20.1-7.3,21.5c-1.2,3.3-4.4,5.3-4.4,5.3h36c0,0-1.4-2.3-0.8-4.3   c0.6-2,6.5-18.6,7-19.9c0.8-2.3,2.9-4.2,6.3-4.4c3.7-0.2,9.1,0.2,10.5,0.2c1.4,0,3.4,1.6,2.6,4.1c-0.8,2.3-5.7,17.5-6.5,19.7   c-1,3-3.8,4.7-3.8,4.7h35.7c0,0-2.3-2.1-1.5-4.7c0.8-2.6,6.2-18.1,6.9-20.5C308,311.3,306.9,304.6,294.8,303.3 M395.7,305.2   c-4.5-1.9-18.6-2.3-34-2.3c-15.5,0-22.7-0.6-32.8,1.6c-9.8,2.1-11.4,7.3-12.6,10.8c-1.1,3.1-3.8,11.6-5.1,15.5   c-1.8,5.4,5,8.4,11.9,8.4h55.8c8.1,0,13.7-3.4,15.2-7.7c1.2-3.4,4.6-12.8,6-16.8C401,311.6,400.1,307.1,395.7,305.2 M367.8,315.3   c-0.5,1.5-4,11.9-4.5,13.5c-0.5,1.6-2.3,2.6-3.7,2.6h-13.8c-1.7,0-2.3-0.7-1.8-2.1c0.5-1.4,4.1-12.1,4.6-13.7   c0.4-1.1,1.6-2.6,4.1-2.6h13.2C367.4,313,368.5,313.5,367.8,315.3"/>
	<path class="st1" d="M457.2,292.6h-31.3l-2.6,7.6h31.4L457.2,292.6z M535.1,305.2c-4.5-1.9-18.6-2.3-34-2.3   c-15.5,0-22.7-0.6-32.8,1.6c-10.1,2.2-10.9,8.2-11.9,11.4c-1.1,3.4-4.2,12.5-5.5,16.3c-1.3,3.8,4.8,6.9,11.7,6.9h55.8h6.7l7.9-8.6   c0,0-1.9,1-9.3,0.9c-2.9,0-35.8,0-37.6,0c-1.8,0-2.7-0.1-3-0.6c-0.3-0.4-0.1-1,0.1-1.7c0.2-0.6,0.9-2.8,0.9-2.8l50.6-0.2   c1.7-4.7,3-9.4,3.8-11.4C539.6,311.4,539.6,307.1,535.1,305.2 M508.1,314c-0.2,0.4-0.9,2-0.9,2h-19.9c0,0,0.5-1.2,1.1-2.8   c0.5-1.3,2.8-1.4,4.6-1.4c1,0,10.1,0,11.1,0s2.7,0,3.4,0.4C508.3,312.6,508.3,313.6,508.1,314 M585.3,310.6h23.8l1.8-5.5h-23.8   l3.3-9.9h-29.4l-3.3,9.9h-13.3l-1.9,5.8h13.3c0,0-4.3,12.7-5.9,17.7c-1.2,3.9-3.2,10.4,6.9,10.4h45.8l5-9.9c0,0-5.2,1.8-8,2.1   c-2.8,0.3-18.2,0-19.5,0c-1.3,0-1.2-1.6-0.4-3.8C580.4,325.4,585.3,310.6,585.3,310.6 M419.3,305.9c0,0,1.8,1.6,0.5,5.6   c-0.9,2.9-8,23-8.8,25.8c-1.2,4.1-3.1,6.9-5.7,7.5c-2.6,0.6-15.3,0-17.3,0c-2,0-9.5-2.4-9.5-2.4l1.2,10.5h45.1   c4.8,0,12.7-1.7,14.8-7.7c2.1-6.1,13.3-39.3,13.3-39.3H419.3z"/>
</g>
</svg>