<svg xmlns="http://www.w3.org/2000/svg" xmlns:vectornator="http://vectornator.io" xmlns:xlink="http://www.w3.org/1999/xlink" stroke-miterlimit="10" style="fill-rule:nonzero;clip-rule:evenodd;stroke-linecap:round;stroke-linejoin:round;" version="1.1" xml:space="preserve" viewBox="0 0 2023.57 613.07">
<defs/>
<clipPath id="ArtboardFrame">
<rect height="613.069" width="2023.57" x="0" y="0"/>
</clipPath>
<g clip-path="url(#ArtboardFrame)" id="Untitled" vectornator:layerName="Untitled">
<path d="M535.498 297.228C535.638 305.364 532.974 313.429 528.549 320.258C519.764 333.816 504.847 342.034 490.058 348.537C475.041 355.139 459.502 360.554 443.634 364.715C432.655 367.593 421.364 369.884 410.031 369.264C402.665 368.86 394.499 367.434 388.538 371.781C385.614 373.913 381.724 373.997 378.105 373.996C302.391 373.986 226.676 373.976 150.962 373.966C148.838 373.966 146.398 373.818 145.106 372.132C144.186 370.93 144.147 369.295 144.147 367.782C144.147 324.416 144.147 281.051 144.147 237.685C144.147 235.989 144.199 234.14 145.286 232.838C146.652 231.202 149.075 231.069 151.206 231.067C232.311 230.959 313.415 230.852 394.52 230.745C403.649 230.733 412.801 230.722 421.874 231.732C430.461 232.687 438.917 234.549 447.355 236.408C457.174 238.572 466.993 240.735 476.812 242.899C483.822 244.443 490.87 246 497.528 248.684C509.205 253.392 519.449 261.592 526.6 271.955C531.746 279.414 535.342 288.168 535.498 297.228M496.422 336.709C505.707 331.16 514.069 323.662 519.161 314.117C524.253 304.573 525.768 292.831 521.744 282.79C516.432 269.533 502.895 261.541 489.585 256.362C476.096 251.113 461.885 247.72 447.48 246.308C441.878 245.76 436.081 245.465 431.027 242.987C426.91 240.969 422.14 240.929 417.555 240.93C331.327 240.946 245.099 240.962 158.871 240.978C157.526 240.978 156.022 241.043 155.092 242.014C154.211 242.933 154.158 244.343 154.158 245.617C154.149 283.138 154.141 320.659 154.132 358.18C154.131 359.895 154.228 361.836 155.52 362.964C156.607 363.912 158.187 363.962 159.629 363.962C232.515 363.976 305.401 363.99 378.287 364.003C381.821 364.004 385.555 363.952 388.579 362.123C395.877 357.708 405.063 358.885 413.591 358.774C423.779 358.642 433.817 356.464 443.772 354.297C461.936 350.342 480.464 346.246 496.422 336.709Z" fill="#ffffff" fill-rule="nonzero" opacity="1" stroke="none" vectornator:layerName="path"/>
<path d="M959.489 232.114C960.624 231.055 962.338 230.994 963.89 230.993C1009.29 230.96 1054.68 230.928 1100.08 230.896C1103.98 230.893 1108.21 230.999 1111.27 233.42C1134.05 251.458 1158 268.018 1182.91 282.962C1184.62 267.197 1184.88 251.275 1183.67 235.464C1183.41 232.111 1187.98 230.911 1191.34 230.912C1236.27 230.934 1281.21 230.955 1326.14 230.977C1327.65 230.978 1329.37 231.068 1330.35 232.219C1331.14 233.155 1331.18 234.497 1331.18 235.726C1331.17 279.792 1331.17 323.859 1331.16 367.926C1331.16 369.644 1331.08 371.567 1329.83 372.75C1328.67 373.859 1326.89 373.926 1325.28 373.928C1288.93 373.974 1252.59 374.02 1216.25 374.066C1209.11 374.075 1201.48 373.943 1195.58 369.934C1167.13 350.632 1137.37 333.271 1106.57 318.011C1106.4 334.447 1106.23 350.883 1106.07 367.318C1106.05 369.392 1105.88 371.768 1104.24 373.031C1103.05 373.944 1101.43 373.983 1099.93 373.983C1055 373.982 1010.07 373.982 965.134 373.982C963.047 373.982 960.681 373.861 959.324 372.276C958.209 370.974 958.153 369.1 958.153 367.385C958.156 323.881 958.159 280.377 958.163 236.873C958.163 235.176 958.248 233.272 959.489 232.114M1124.3 314.382C1148.41 329.539 1172.53 344.696 1196.64 359.853C1203.44 364.128 1211.96 364.232 1220 364.203C1252.16 364.087 1284.33 363.971 1316.49 363.854C1318.04 363.849 1319.75 363.781 1320.87 362.715C1322.08 361.571 1322.16 359.712 1322.16 358.052C1322.17 320.64 1322.18 283.227 1322.18 245.815C1322.18 244.46 1322.13 242.953 1321.17 241.991C1320.21 241.018 1318.68 240.956 1317.31 240.956C1278.03 240.954 1238.75 240.951 1199.46 240.949C1197.89 240.949 1196.17 240.995 1194.94 241.987C1193.34 243.283 1193.2 245.636 1193.19 247.699C1193.12 265.738 1193.06 283.777 1192.99 301.815C1164.06 282.329 1135.13 262.843 1106.19 243.356C1103.01 241.209 1098.92 241.083 1095.07 241.037C1052.77 240.524 1010.46 240.791 968.167 241.836C968.159 280.841 968.15 319.846 968.141 358.852C968.141 360.366 968.228 362.081 969.374 363.071C970.323 363.889 971.693 363.932 972.945 363.934C1008.51 363.982 1044.07 364.03 1079.63 364.078C1084.96 364.085 1091.18 363.642 1094.15 359.215C1095.68 356.937 1095.96 354.072 1096.14 351.336C1097.22 335.099 1096.38 318.735 1093.66 302.692C1104.76 302.351 1114.9 308.473 1124.3 314.382Z" fill="#ffffff" fill-rule="nonzero" opacity="1" stroke="none" vectornator:layerName="path"/>
<path d="M954.805 71.9351C990.014 71.9376 1025.22 71.94 1060.43 71.9424C1063.21 71.9426 1066.12 71.978 1068.54 73.3414C1071.21 74.8469 1072.78 77.6919 1074.22 80.3953C1080.96 93.029 1087.7 105.663 1094.44 118.297C1095.43 120.162 1096.57 122.159 1098.51 122.992C1102.76 124.815 1106.75 120.064 1108.96 116.002C1115.28 104.381 1121.61 92.7606 1127.93 81.1398C1129.57 78.1264 1131.37 74.9457 1134.41 73.3468C1136.91 72.0309 1139.86 71.9973 1142.68 71.9938C1177.74 71.9505 1212.79 71.9072 1247.85 71.8639C1252.57 71.858 1257.79 72.0356 1261.24 75.2563C1265.02 78.7779 1265.28 84.5777 1265.28 89.7438C1265.26 118.707 1265.23 147.67 1265.21 176.633C1265.21 181.909 1264.95 187.815 1261.12 191.449C1257.54 194.852 1252.07 195.054 1247.13 195.057C1222.74 195.073 1198.35 195.089 1173.96 195.105C1169.2 195.109 1162.82 193.584 1162.88 188.833C1163.04 175.388 1163.21 161.942 1163.38 148.497C1163.4 146.488 1162.26 143.624 1160.42 144.433C1159.89 144.665 1159.55 145.172 1159.23 145.655C1149.81 159.958 1140.39 174.261 1130.97 188.564C1126.99 194.605 1118.52 195.217 1111.29 195.202C1102.23 195.184 1093.17 195.165 1084.11 195.146C1080.16 195.138 1075.97 195.066 1072.62 192.974C1069.66 191.124 1067.81 187.97 1066.07 184.939C1058 170.847 1049.92 156.755 1041.84 142.663C1039.58 157.569 1039.21 172.762 1040.75 187.76C1041.3 193.123 1033.94 195.119 1028.55 195.107C1000.35 195.042 972.154 194.978 943.957 194.913C942.42 194.909 940.731 194.85 939.589 193.822C938.28 192.644 938.184 190.659 938.183 188.898C938.157 155.107 938.131 121.316 938.105 87.5252C938.101 83.5475 938.22 79.2141 940.754 76.1484C943.979 72.2471 949.743 71.9348 954.805 71.9351M1062.57 85.7149C1057.23 81.8525 1050.15 81.7197 1043.57 81.738C1017.56 81.8102 991.557 81.8823 965.552 81.9545C959.704 81.9708 952.952 82.4213 949.496 87.14C947.158 90.3337 947.07 94.5925 947.075 98.551C947.112 125.421 947.149 152.291 947.185 179.161C947.187 180.809 947.271 182.655 948.468 183.786C949.58 184.837 951.269 184.902 952.798 184.907C975.222 184.981 997.646 185.054 1020.07 185.127C1024.51 185.142 1030.47 183.733 1030.42 179.297C1030.23 160.375 1030.04 141.453 1029.85 122.53C1029.81 118.581 1031.11 113.226 1035.06 113.39C1037.57 113.495 1039.2 116 1040.4 118.217C1048.17 132.626 1055.94 147.036 1063.72 161.445C1066.87 167.299 1070.14 173.29 1075.16 177.647C1086.79 187.727 1104.1 186.424 1119.37 184.545C1121.94 184.228 1124.88 183.685 1126.2 181.447C1139.89 158.215 1153.59 134.983 1167.28 111.751C1168.33 109.96 1170.59 107.941 1172.11 109.36C1172.8 110 1172.86 111.048 1172.87 111.985C1173.17 136.307 1173.48 160.629 1173.79 184.952C1197.04 184.97 1220.3 184.989 1243.55 185.008C1245.24 185.009 1247.09 184.952 1248.35 183.837C1249.8 182.564 1249.95 180.403 1249.99 178.479C1250.66 146.323 1250.41 114.149 1249.22 82.0083C1215.52 81.961 1181.82 81.9137 1148.13 81.8664C1144.34 81.8611 1139.89 82.1956 1137.84 85.3863C1126.72 102.75 1116.21 120.511 1106.35 138.626C1104.63 141.794 1100.07 145.184 1098.22 142.088C1088.97 126.592 1079.71 111.097 1070.46 95.6012C1068.28 91.9551 1066.01 88.2053 1062.57 85.7149Z" fill="#ffffff" fill-rule="nonzero" opacity="1" stroke="none" vectornator:layerName="path"/>
<path d="M632.896 307.445C620.29 297.822 607.684 288.198 595.078 278.575C575.259 263.444 555.403 248.284 537.15 231.297C588.345 231.121 639.541 230.944 690.737 230.768C694.899 230.754 699.545 230.93 702.466 233.895C712.349 243.928 722.231 253.961 732.114 263.994C733.596 265.499 735.259 267.093 737.361 267.301C740.06 267.567 742.357 265.481 744.259 263.548C753.616 254.039 762.973 244.53 772.331 235.021C776.233 231.055 782.442 230.811 788.006 230.822C837.671 230.921 887.336 231.019 937 231.118C939.422 232.692 937.19 236.393 934.909 238.166C933.406 239.335 931.885 240.481 930.365 241.627C892.912 269.86 855.458 298.092 818.005 326.324C814.819 328.726 811.493 331.304 809.973 334.992C808.453 338.68 809.58 343.773 813.314 345.179C818.517 347.137 805.993 356.456 810.938 358.997C815.14 361.156 814.375 367.984 810.664 370.907C806.953 373.831 801.835 373.964 797.111 373.967C757.329 373.994 717.547 374.022 677.765 374.049C674.912 374.051 671.976 374.038 669.331 372.967C660.7 369.476 659.929 357.697 660.974 348.445C662.019 339.194 662.483 327.763 654.559 322.875C647.01 318.219 639.946 312.827 632.896 307.445M743.058 278.932C741.686 280.329 740.134 281.814 738.181 281.959C735.831 282.133 733.855 280.325 732.202 278.647C720.658 266.926 709.113 255.205 697.569 243.484C695.306 241.186 691.718 241.015 688.493 240.992C646.396 240.692 604.295 240.867 562.202 241.518C571.333 248.403 580.464 255.288 589.596 262.173C591.246 263.417 592.921 264.685 594.143 266.352C596.322 269.321 599.336 271.551 602.303 273.733C622.599 288.664 642.895 303.596 663.191 318.527C666.219 320.755 669.289 323.022 671.594 325.992C678.361 334.708 677.035 347.006 675.376 357.915C674.714 362.267 680.766 364.034 685.168 364.035C720.953 364.045 756.738 364.055 792.522 364.064C798.876 364.066 801.759 355.861 801.041 349.548C800.323 343.235 797.936 336.496 800.791 330.82C802.233 327.954 804.819 325.863 807.333 323.869C841.832 296.496 877.041 270.018 912.913 244.47C914.143 242.585 910.932 241.011 908.682 241.008C870.029 240.953 831.377 240.899 792.725 240.845C786.813 240.836 780.216 241.099 776.073 245.317C765.068 256.522 754.063 267.727 743.058 278.932Z" fill="#ffffff" fill-rule="nonzero" opacity="1" stroke="none" vectornator:layerName="path"/>
<path d="M535.017 96.9364C532.87 96.9349 530.459 97.0425 528.998 98.6153C527.537 100.188 528.479 103.584 530.602 103.264C545.027 101.093 559.662 104.323 573.862 107.66C586.516 110.633 600.002 114.21 608.501 124.046C616.747 133.588 618.394 148.291 612.465 159.422C608.976 165.97 603.256 171.104 596.969 175.043C585.229 182.399 571.533 185.879 558.044 189.042C548.783 191.213 539.471 193.29 530.009 194.271C521.45 195.158 512.827 195.144 504.222 195.128C457.53 195.044 410.838 194.96 364.146 194.876C355.196 194.86 344.368 193.729 340.501 185.656C338.96 182.437 338.933 178.729 338.936 175.16C338.942 169.095 338.947 163.031 338.953 156.966C338.956 153.509 340.338 148.76 343.757 149.267C387.043 155.693 431.061 157.175 474.681 153.675C475.978 153.571 477.512 153.306 478.052 152.122C479.058 149.917 475.664 148.451 473.242 148.391C448.439 147.775 423.621 147.723 398.816 148.233C395.879 148.294 393.01 147.437 390.199 146.588C380.972 143.802 371.745 141.016 362.519 138.231C356.041 136.275 349.453 134.268 343.848 130.478C331.616 122.208 326.039 105.306 330.946 91.38C337.387 73.1014 357.68 64.0239 376.406 59.0292C387.403 56.0959 398.601 53.8607 409.926 52.7283C421.925 51.5285 434.009 51.5701 446.068 51.613C491.395 51.7739 536.723 51.9349 582.05 52.0958C588.449 52.1185 595.514 52.3938 600.171 56.7819C605.819 62.1044 605.483 71.0223 604.729 78.7464C604.136 84.8248 603.543 90.9032 602.949 96.9816C580.305 96.9665 557.661 96.9514 535.017 96.9364M348.001 177.676C348.223 179.248 348.47 180.884 349.375 182.189C351.134 184.723 354.657 185.14 357.74 185.241C377.169 185.88 396.686 183.284 416.019 185.318C435.519 187.37 455.532 194.054 474.233 188.161C492.868 182.289 513.033 185.949 532.506 184.351C539.982 183.737 547.369 182.343 554.74 180.951C565.185 178.979 575.861 176.922 585.048 171.574C592.196 167.413 598.206 161.321 602.27 154.118C603.441 152.043 604.46 149.859 604.998 147.538C606.975 139.001 601.941 130.036 594.808 124.947C587.675 119.858 578.823 117.895 570.184 116.431C545.615 112.271 520.522 111.218 495.691 113.308C485.248 114.186 474.669 113.438 464.453 111.099C458.233 109.674 451.021 106.339 450.508 99.978C450.145 95.4853 453.637 91.4006 457.77 89.6019C461.903 87.8032 466.561 87.7876 471.068 87.8015C509.55 87.9206 548.031 88.0396 586.513 88.1586C591.218 88.1732 595.002 83.788 595.96 79.181C596.918 74.574 595.741 69.8215 594.571 65.2639C593.659 61.7122 589.005 60.9927 585.338 60.9902C529.114 60.9519 472.891 60.9136 416.667 60.8752C410.864 60.8713 404.708 60.9637 399.798 64.0571C394.621 67.3189 388.093 67.1038 382.015 67.8138C364.761 69.8293 348.771 80.663 340.503 95.9411C338.939 98.8303 337.649 102.414 339.24 105.288C343.635 113.225 349.418 120.549 356.909 125.669C364.679 130.979 373.925 133.697 383.155 135.534C409.468 140.769 436.581 139.442 463.389 138.389C469.759 138.139 476.272 137.923 482.363 139.805C488.454 141.686 494.148 146.089 495.818 152.242C492.828 162.059 479.947 163.904 469.684 163.925C439.768 163.988 409.852 164.051 379.937 164.114C373.319 164.128 366.046 163.906 361.106 159.501C357.438 156.231 351.12 158.822 348.898 163.205C346.676 167.588 347.311 172.811 348.001 177.676Z" fill="#ffffff" fill-rule="nonzero" opacity="1" stroke="none" vectornator:layerName="path"/>
<path d="M456.684 50.0049C471.684 36.3189 493.081 32.7885 513.2 30.0387C820.112-11.9102 1133-9.91028 1439.35 35.9586C1447.15 37.1263 1455.61 38.6756 1460.82 44.5985C1381.6 37.4565 1302.37 30.3145 1223.15 23.1725C1202.78 21.3363 1182.42 19.5 1162.03 17.8839C926.798-0.763743 689.246 10.0542 456.684 50.0049Z" fill="#ffffff" fill-rule="nonzero" opacity="1" stroke="none" vectornator:layerName="path"/>
<path d="M1280.36 485.897C1265.79 485.689 1249.96 485.043 1238.75 475.741C1224.99 464.331 1205.22 464.887 1187.38 466.03C1184.7 466.202 1181.87 466.425 1179.68 467.971C1177.48 469.516 1176.34 472.881 1178.05 474.949C1180.48 477.887 1178.64 482.692 1175.37 484.662C1172.11 486.631 1168.05 486.575 1164.24 486.458C1157.07 486.239 1149.9 486.02 1142.73 485.801C1141.4 485.761 1139.98 485.69 1138.91 484.899C1137.26 483.68 1137.12 481.314 1137.12 479.263C1137.12 465.319 1137.13 451.374 1137.13 437.43C1137.13 435.43 1137.27 433.128 1138.87 431.927C1139.96 431.111 1141.42 431.058 1142.78 431.04C1184.1 430.501 1225.43 431.711 1266.73 430.542C1273.16 430.36 1279.71 430.134 1285.9 431.869C1292.1 433.603 1298 437.661 1300.25 443.685C1302.5 449.709 1299.92 457.616 1293.88 459.821C1290.83 460.933 1287.48 460.532 1284.24 460.605C1281 460.677 1277.42 461.447 1275.54 464.089C1273.66 466.731 1275.09 471.467 1278.33 471.47C1289.44 471.478 1300.39 477.18 1306.77 486.274C1297.97 486.148 1289.16 486.022 1280.36 485.897M1262.51 450.987C1264.14 450.988 1266.44 450.162 1265.94 448.605C1264.28 444.766 1260.48 442.189 1256.47 440.995C1252.46 439.801 1248.21 439.798 1244.03 439.804C1225.76 439.832 1207.49 439.86 1189.22 439.888C1185.91 439.893 1182.33 439.988 1179.74 442.031C1177.14 444.074 1176.59 448.842 1179.52 450.37C1180.58 450.921 1181.82 450.935 1183.02 450.935C1209.51 450.953 1236.01 450.97 1262.51 450.987Z" fill="#ffffff" fill-rule="nonzero" opacity="1" stroke="none" vectornator:layerName="path"/>
<path d="M1331.71 60.5548C1344.28 56.9095 1357.18 54.3776 1370.19 52.9986C1386.69 51.2508 1403.32 51.3549 1419.91 51.4609C1462.35 51.7322 1504.8 52.0035 1547.24 52.2748C1552.58 52.309 1558.38 52.4968 1562.54 55.8554C1568.62 60.7657 1568.43 69.9196 1567.71 77.7C1567.11 84.1311 1566.51 90.5622 1565.91 96.9933C1531.61 96.9709 1497.31 96.9486 1463.01 96.9262C1458.88 96.9236 1453.11 98.8802 1454.2 102.862C1462.22 102.829 1470.24 102.796 1478.26 102.763C1486.64 102.729 1495.03 102.695 1503.39 103.218C1515.57 103.98 1527.67 105.925 1539.49 108.988C1549.37 111.551 1559.3 115.036 1567.08 121.643C1574.86 128.25 1580.15 138.547 1578.45 148.61C1577.17 156.167 1572.21 162.615 1566.58 167.816C1552.1 181.191 1532.69 188.112 1513.27 191.489C1492.95 195.021 1472.21 195.031 1451.58 195.031C1407.45 195.031 1363.32 195.031 1319.19 195.03C1316.41 195.03 1313.56 195.02 1310.94 194.081C1301.85 190.824 1300.02 178.987 1299.7 169.335C1299.55 164.912 1299.43 160.319 1301.19 156.256C1302.94 152.193 1307.15 148.826 1311.52 149.535C1352.87 156.242 1395.11 157.407 1436.77 152.987C1433.83 148.389 1427.41 147.924 1421.95 147.952C1411.98 148.001 1402.02 148.051 1392.05 148.101C1377.28 148.175 1362.43 148.242 1347.87 145.792C1336.22 143.833 1324.83 140.258 1314.24 135.024C1309.08 132.471 1304.05 129.482 1299.99 125.398C1289.51 114.86 1287.22 97.1256 1294.67 84.2699C1302.21 71.2627 1317.27 64.7419 1331.71 60.5548M1314.92 185.111C1325.23 185.005 1335.55 184.899 1345.86 184.792C1360.79 184.639 1375.88 184.5 1390.47 187.684C1407.41 191.38 1425 189.801 1442.26 188.205C1447.39 187.731 1452.52 187.257 1457.64 186.783C1472.23 185.435 1486.82 184.086 1501.4 182.662C1513.6 181.47 1526 180.173 1537.3 175.422C1544.25 172.501 1550.66 168.302 1556.11 163.098C1565.76 153.879 1571.84 137.21 1562.36 127.813C1558.29 123.777 1552.41 122.292 1546.83 120.968C1543.38 120.151 1539.94 119.334 1536.5 118.516C1526.7 116.193 1516.87 113.863 1506.85 112.931C1492.09 111.558 1477.23 113.243 1462.41 113.627C1450.56 113.934 1438.64 113.402 1427.02 111.08C1421.42 109.961 1414.99 107.565 1413.56 102.031C1412.31 97.2033 1415.82 92.1691 1420.3 89.9827C1424.79 87.7962 1429.97 87.7659 1434.96 87.7795C1471.48 87.8797 1508 87.98 1544.52 88.0802C1546.54 88.0857 1548.81 87.994 1550.21 86.5329C1551.14 85.5615 1551.48 84.1816 1551.78 82.8702C1552.81 78.4 1553.84 73.744 1552.82 69.2722C1551.8 64.8004 1548.07 60.5913 1543.48 60.6259C1519.31 60.8085 1495.13 60.9911 1470.96 61.1736C1466.43 61.2078 1461.79 61.2233 1457.54 59.673C1453.47 58.1882 1449.23 55.272 1445.21 56.8873C1416.67 68.349 1382.39 53.2251 1354.18 65.4856C1349.8 67.3913 1344.75 66.3103 1339.99 66.7371C1333.52 67.3171 1327.67 70.6818 1322.13 74.0777C1313.57 79.3216 1304.56 85.6502 1301.83 95.3063C1298.8 106.01 1304.9 117.666 1313.87 124.253C1322.83 130.839 1334.09 133.355 1345.06 135.159C1371.87 139.565 1399.21 140.681 1426.28 138.473C1432.74 137.946 1439.49 137.268 1445.51 139.669C1451.54 142.07 1456.44 148.716 1454.49 154.899C1452.03 162.65 1441.85 164.061 1433.72 164.06C1402.98 164.057 1372.24 164.055 1341.5 164.052C1335.74 164.052 1329.37 163.82 1325.19 159.853C1321.11 155.975 1313.75 159.098 1311.46 164.24C1309.17 169.383 1310.34 175.33 1311.56 180.826C1311.99 182.752 1312.95 185.131 1314.92 185.111Z" fill="#ffffff" fill-rule="nonzero" opacity="1" stroke="none" vectornator:layerName="path"/>
<path d="M642.844 195.149C639.778 195.154 636.552 195.118 633.892 193.593C631.232 192.069 629.478 188.505 630.991 185.838C649.228 153.693 667.464 121.549 685.701 89.4044C688.635 84.2328 691.756 78.8586 696.757 75.6415C702.698 71.8192 710.207 71.7115 717.272 71.7275C758.085 71.8195 798.898 71.9115 839.711 72.0035C848.005 72.0222 857.981 73.0166 861.729 80.4154C879.824 116.132 899.224 151.188 919.877 185.489C920.912 187.208 921.992 189.169 921.501 191.115C920.678 194.372 916.408 195.033 913.049 195.03C880.716 195.005 848.384 194.98 816.052 194.955C813.891 194.954 811.054 194.382 810.84 192.231C809.851 182.263 796.813 179.442 786.798 179.228C777.772 179.035 768.746 178.842 759.72 178.649C751.514 178.474 741.501 179.343 737.962 186.749C734.497 193.999 724.773 195.015 716.738 195.028C692.107 195.068 667.476 195.108 642.844 195.149M734.034 177.315C732.074 175.085 730.115 172.856 728.155 170.626C754.997 169.835 781.856 169.632 808.707 170.018C811.279 170.055 814.776 171.081 814.452 173.632C813.918 177.853 817.152 181.821 821.04 183.549C824.929 185.276 829.334 185.272 833.588 185.237C858.394 185.036 883.2 184.834 908.005 184.633C890.668 154.074 873.331 123.516 855.994 92.9575C854.444 90.2262 852.838 87.4267 850.392 85.4576C845.982 81.9079 839.831 81.7544 834.17 81.7643C794.717 81.8333 755.263 81.9023 715.809 81.9713C709.008 81.9832 700.878 82.7439 697.65 88.7306C681.299 119.058 663.841 148.789 645.322 177.844C642.809 181.786 649.478 185.017 654.153 185.022C673.673 185.042 693.193 185.062 712.714 185.083C720.669 185.091 730.149 184.257 734.034 177.315Z" fill="#ffffff" fill-rule="nonzero" opacity="1" stroke="none" vectornator:layerName="path"/>
<path d="M569.203 491.684C607.068 495.601 644.941 499.458 682.873 502.648C893.301 520.345 1105.46 517.435 1315.32 493.974C1335.38 491.732 1356.02 489.532 1375.46 494.951C1349.44 501.017 1322.8 503.947 1296.21 506.558C1042.08 531.514 785.216 528.403 531.772 497.3C542.021 489.39 556.326 490.352 569.203 491.684Z" fill="#ffffff" fill-rule="nonzero" opacity="1" stroke="none" vectornator:layerName="path"/>
<path d="M921.799 466.318C922.704 456.492 922.67 446.58 921.696 436.761C921.249 432.246 927.444 430.567 931.981 430.614C942.879 430.729 953.773 431.105 964.653 431.743C958.723 434.417 957.917 442.363 957.977 448.867C958.076 459.697 958.176 470.526 958.276 481.355C958.296 483.512 955.754 484.637 953.65 485.114C938.495 488.549 922.299 487.235 907.895 481.404C904.102 479.868 900.44 478.032 896.782 476.198C879.627 467.598 862.471 458.999 845.316 450.399C840.513 447.991 835.032 453.399 834.409 458.735C833.787 464.071 835.931 469.344 836.1 474.713C836.269 480.083 833.049 486.479 827.678 486.362C819.977 486.194 812.277 486.025 804.576 485.857C803.384 485.831 802.076 485.76 801.201 484.949C800.209 484.029 800.14 482.51 800.14 481.157C800.137 465.908 800.134 450.659 800.131 435.411C800.131 434.151 800.201 432.727 801.149 431.898C801.917 431.226 803.026 431.163 804.046 431.133C811.652 430.914 819.257 430.695 826.863 430.475C844.234 429.975 860.699 437.543 876.422 444.947C878.635 445.99 880.848 447.032 883.062 448.074C895.974 454.156 908.886 460.237 921.799 466.318Z" fill="#ffffff" fill-rule="nonzero" opacity="1" stroke="none" vectornator:layerName="path"/>
<path d="M751.353 450.942C753.763 450.941 756.567 451.134 757.938 453.117C759.506 455.387 758.012 458.73 755.615 460.095C753.218 461.46 750.299 461.405 747.541 461.322C721.832 460.548 696.097 460.668 670.396 461.68C673.039 470.818 685.079 472.472 694.591 472.367C716 472.131 737.409 471.895 758.818 471.659C766.437 471.574 775.731 472.488 778.915 479.409C775.264 485.394 766.989 486.056 759.979 486.05C718.426 486.011 676.873 485.973 635.321 485.935C634.227 485.934 633.03 485.896 632.204 485.179C631.217 484.32 631.142 482.839 631.142 481.53C631.143 466.147 631.143 450.764 631.143 435.382C631.143 434.054 631.223 432.545 632.239 431.69C633.054 431.004 634.218 430.97 635.284 430.97C678.834 430.96 722.383 430.95 765.933 430.94C769.399 430.939 774.037 432.017 774.061 435.483C774.085 438.986 769.38 440.093 765.876 440.082C738.122 439.995 710.367 439.907 682.613 439.82C679.28 439.809 675.673 439.887 673.032 441.921C670.392 443.956 669.756 448.735 672.671 450.351C673.791 450.973 675.136 450.987 676.417 450.987C701.396 450.972 726.374 450.957 751.353 450.942Z" fill="#ffffff" fill-rule="nonzero" opacity="1" stroke="none" vectornator:layerName="path"/>
<path d="M1333.27 454.451C1325.64 450.418 1325.3 437.562 1332.71 433.128C1336.5 430.858 1341.17 430.803 1345.59 430.813C1389.23 430.912 1432.87 431.011 1476.51 431.109C1473.71 439.014 1463.26 440.297 1454.87 440.222C1433.74 440.033 1412.61 439.844 1391.47 439.655C1383 439.579 1373.28 440.06 1367.99 446.681C1367.54 447.246 1367.11 447.9 1367.12 448.624C1367.16 450.459 1369.61 451.018 1371.44 451.015C1396.4 450.977 1421.35 450.939 1446.31 450.901C1449.6 450.896 1453.8 451.554 1454.57 454.755C1455.63 459.104 1449.39 461.13 1444.91 461.111C1421.82 461.013 1398.73 460.915 1375.65 460.817C1372.43 460.804 1368.47 461.253 1367.25 464.23C1371.06 471.254 1380.62 472.112 1388.61 472.094C1412.14 472.039 1435.67 471.983 1459.2 471.928C1463.87 471.918 1469.07 472.113 1472.37 475.41C1475.68 478.707 1474.36 486.046 1469.69 486.042C1427.71 486.009 1385.72 485.976 1343.74 485.944C1339.09 485.94 1334.02 485.79 1330.46 482.803C1326.9 479.815 1326.64 472.892 1331.01 471.292C1333.36 470.431 1330.72 467.255 1328.99 465.445C1325.6 461.883 1328.37 454.781 1333.27 454.451Z" fill="#ffffff" fill-rule="nonzero" opacity="1" stroke="none" vectornator:layerName="path"/>
<path d="M1084.52 583.85C1081.68 583.939 1078.83 584.029 1075.99 584.119C1073.84 584.187 1070.89 583.466 1071.07 581.33C1071.22 579.525 1073.53 578.945 1075.33 578.716C1080.59 578.042 1085.73 576.351 1090.36 573.763C1092.47 572.583 1095.33 574.628 1095.5 577.042C1095.66 579.455 1093.83 581.646 1091.63 582.663C1089.43 583.68 1086.94 583.773 1084.52 583.85Z" fill="#ffffff" fill-rule="nonzero" opacity="1" stroke="none" vectornator:layerName="path"/>
<path d="M1344.22 566.995C1340.24 568.491 1335.59 568.503 1331.88 566.421C1328.18 564.339 1325.69 559.982 1326.38 555.789C1327.08 551.596 1331.33 548.137 1335.52 548.85C1340.11 549.631 1345.29 547.56 1349.23 550.037C1352.33 551.987 1353.33 556.352 1352.06 559.783C1350.78 563.214 1347.65 565.706 1344.22 566.995Z" fill="#ffffff" fill-rule="nonzero" opacity="1" stroke="none" vectornator:layerName="path"/>
<path d="M1724.39 489.124C1721.03 486.678 1719.15 482.75 1717.39 478.987C1720.66 473.858 1726.08 470.148 1732.04 468.956C1739.26 467.514 1748.24 471.103 1749.4 478.369C1748.86 481.812 1746.55 484.929 1743.43 486.466C1742.23 487.055 1740.89 487.441 1739.9 488.334C1735.73 492.076 1728.91 492.423 1724.39 489.124Z" fill="#ffffff" fill-rule="nonzero" opacity="1" stroke="none" vectornator:layerName="path"/>
<path d="M1280.25 557.465C1273.53 559.854 1266.15 558.998 1259.08 558.111C1257.11 557.864 1254.49 556.676 1255.11 554.792C1261.82 553.42 1268.75 553.116 1275.56 553.895C1277.74 554.145 1280.55 555.283 1280.25 557.465Z" fill="#ffffff" fill-rule="nonzero" opacity="1" stroke="none" vectornator:layerName="path"/>
<path d="M1069.34 485.049C1068.51 485.875 1067.2 485.931 1066.03 485.938C1056.05 485.989 1046.07 486.041 1036.09 486.093C1033.54 486.106 1030.1 485.308 1030.1 482.75C1030.13 470.421 1030.16 458.092 1030.19 445.764C1030.19 444.164 1030.14 442.411 1029.1 441.201C1027.81 439.717 1025.58 439.64 1023.62 439.678C1010.29 439.938 996.966 440.198 983.64 440.458C981.182 440.506 978.587 440.521 976.449 439.306C974.312 438.091 972.934 435.179 974.23 433.089C975.457 431.109 978.202 430.893 980.532 430.894C1027.23 430.926 1073.92 430.958 1120.62 430.99C1122.98 430.992 1125.79 431.245 1126.94 433.309C1128.08 435.347 1126.71 438.046 1124.67 439.176C1122.63 440.306 1120.17 440.293 1117.84 440.25C1106.16 440.036 1094.47 439.823 1082.78 439.609C1077.34 439.509 1069.99 441.161 1070.02 446.604C1070.1 458.278 1070.17 469.952 1070.25 481.626C1070.26 482.84 1070.21 484.196 1069.34 485.049Z" fill="#ffffff" fill-rule="nonzero" opacity="1" stroke="none" vectornator:layerName="path"/>
<path d="M1554.63 536.201C1550.87 534.828 1546.93 533.337 1544.33 530.289C1541.72 527.242 1541.08 522.121 1544.06 519.435C1547.09 516.699 1552.38 517.541 1555.06 514.462C1556.95 512.291 1560.43 512.745 1563.13 513.762C1567.2 515.3 1571.17 517.975 1572.73 522.041C1574.29 526.108 1572.41 531.6 1568.19 532.685C1566.67 533.077 1565.01 532.885 1563.55 533.456C1561.44 534.277 1559.98 536.569 1557.73 536.818C1556.68 536.935 1555.63 536.565 1554.63 536.201Z" fill="#ffffff" fill-rule="nonzero" opacity="1" stroke="none" vectornator:layerName="path"/>
<path d="M569.302 431.206C577.263 431.313 585.204 432.755 592.695 435.453C597.637 437.233 602.658 439.801 605.326 444.326C592.991 445.642 580.522 445.693 568.177 444.478C557.408 443.418 546.755 441.401 536.007 440.154C521.205 438.436 505.584 438.317 492.151 444.766C484.557 448.411 477.346 457.768 482.39 464.515C484.659 467.549 488.614 468.684 492.283 469.632C499.074 471.387 505.866 473.143 512.658 474.898C519.181 476.584 526.049 478.274 532.569 476.574C538.857 474.935 544.839 470.201 551.138 471.799C554.309 472.603 557.417 470.572 560.205 468.86C573.627 460.616 590.376 457.978 605.682 461.697C608.774 462.448 609.858 466.677 608.469 469.541C607.08 472.405 604.127 474.128 601.273 475.539C593.171 479.544 584.508 482.41 575.616 484.028C563.582 486.218 551.264 486.116 539.033 486.008C522.957 485.865 506.881 485.723 490.806 485.58C486.433 485.541 482.051 485.502 477.704 485.027C465.076 483.647 452.883 478.501 443.085 470.417C439.121 467.147 435.27 462.698 435.728 457.58C436.017 454.345 438.006 451.524 440.149 449.084C444.787 443.806 450.495 439.473 456.825 436.425C463.987 432.976 471.931 431.183 479.88 431.132C486.094 431.093 493.006 431.896 497.856 428.011C500.428 425.951 504.005 425.86 507.3 425.863C519.887 425.873 532.473 425.883 545.06 425.893C547.788 425.895 550.774 425.989 552.837 427.774C557.175 431.527 563.566 431.129 569.302 431.206Z" fill="#ffffff" fill-rule="nonzero" opacity="1" stroke="none" vectornator:layerName="path"/>
<path d="M1741.79 260.26C1752.37 268.353 1760.5 279.607 1764.87 292.195C1765.64 294.432 1766.31 296.756 1766.24 299.122C1766.18 301.029 1765.65 302.886 1765.12 304.719C1761.91 315.845 1758.45 327.414 1750.56 335.893C1743.4 343.596 1733.38 347.87 1723.65 351.883C1704.41 359.82 1684.92 367.629 1664.41 371.197C1647.43 374.151 1630.1 374.138 1612.87 374.117C1583.82 374.082 1554.77 374.046 1525.73 374.011C1514.65 373.997 1503.57 373.984 1492.51 373.332C1479.91 372.588 1467.35 371.013 1455 368.356C1438.12 364.722 1421.68 359.063 1406.14 351.539C1393.38 345.361 1380.76 337.467 1373.38 325.356C1364.98 311.547 1364.88 293.09 1373.15 279.195C1380.04 267.614 1391.75 259.748 1403.77 253.645C1421.89 244.437 1441.59 238.342 1461.75 235.708C1471.03 234.496 1480.33 233.446 1489.64 232.561C1507.33 230.88 1525.06 229.79 1542.79 228.701C1547.25 228.426 1551.72 228.152 1556.18 227.877C1564.86 227.344 1573.69 226.822 1582.15 228.809C1602.13 233.5 1623.07 229.465 1643.53 230.959C1656.29 231.891 1668.78 234.966 1681.2 238.029C1685.83 239.172 1690.46 240.315 1695.1 241.459C1706.41 244.249 1717.81 247.071 1728.32 252.092C1733.07 254.359 1737.61 257.066 1741.79 260.26M1752.78 296.747C1750.99 285.038 1743.37 274.807 1733.88 267.723C1724.38 260.639 1713.12 256.352 1701.8 252.844C1689.9 249.154 1677.76 246.226 1665.49 244.043C1648.98 241.105 1632.11 239.518 1615.42 241.153C1603.53 242.318 1591.74 238.812 1579.89 237.252C1564.81 235.268 1549.52 236.442 1534.35 237.618C1528.9 238.041 1523.45 238.464 1518 238.887C1507.06 239.736 1496.11 240.586 1485.25 242.128C1475.78 243.472 1466.4 245.338 1457.02 247.203C1451.55 248.29 1446.09 249.377 1440.63 250.463C1432.53 252.074 1424.38 253.698 1416.67 256.665C1403.23 261.84 1391.4 271.133 1383.19 282.972C1379.44 288.379 1376.36 294.594 1376.41 301.174C1376.45 306.946 1378.89 312.443 1381.88 317.381C1387.29 326.322 1394.66 334.071 1403.32 339.923C1407.28 342.597 1411.5 344.877 1415.84 346.86C1430.3 353.458 1446.03 356.728 1461.66 359.574C1478.98 362.726 1496.6 365.428 1514.12 363.807C1532.39 362.119 1550.82 373.596 1568.46 368.559C1585.22 363.77 1602.92 363.641 1620.36 363.548C1628.68 363.503 1637 363.458 1645.31 362.997C1653.78 362.527 1662.23 361.625 1670.61 360.295C1679.8 358.835 1688.93 356.856 1697.76 353.891C1713.71 348.531 1728.57 339.938 1741.17 328.785C1750.04 320.935 1754.56 308.455 1752.78 296.747Z" fill="#ffffff" fill-rule="nonzero" opacity="1" stroke="none" vectornator:layerName="path"/>
<path d="M380.114 320.03C379.836 320.306 379.558 320.582 379.28 320.858C375.633 324.476 371.88 328.169 367.203 330.295C361.791 332.755 355.638 332.892 349.695 332.743C346.268 332.657 342.601 332.552 339.707 334.388C338.338 335.257 337.226 336.52 335.766 337.226C334.139 338.012 332.261 338.025 330.455 338.022C315.974 337.997 301.494 337.972 287.013 337.948C285.796 337.945 284.476 337.909 283.526 337.148C282.262 336.137 282.157 334.287 282.157 332.668C282.157 314.096 282.157 295.524 282.156 276.952C282.156 275.706 282.192 274.353 282.969 273.379C284.004 272.082 285.901 271.973 287.56 271.972C309.294 271.96 331.027 271.947 352.761 271.935C355.109 271.934 358.028 272.311 358.809 274.526C360.152 278.328 365.875 276.216 369.839 276.955C374.733 277.867 377.085 283.737 381.613 285.805C388.333 288.874 392.354 296.895 390.864 304.13C389.553 310.493 384.726 315.454 380.114 320.03M379.814 301.728C378.701 298.311 376.121 295.605 373.618 293.025C370.694 290.011 367.326 286.79 363.128 286.657C361.729 286.613 360.968 285.072 360.01 284.051C358.116 282.034 355.011 281.9 352.244 281.904C333.916 281.93 315.588 281.956 297.261 281.982C296.087 281.984 294.834 282.009 293.863 282.67C292.28 283.748 292.124 285.982 292.127 287.898C292.143 300.223 292.159 312.548 292.175 324.873C292.176 325.728 292.215 326.68 292.82 327.285C293.424 327.889 294.374 327.93 295.229 327.932C309.017 327.969 322.805 328.007 336.593 328.044C339.359 328.052 342.583 327.831 344.142 325.546C346.321 322.352 351.006 322.588 354.848 323.025C358.69 323.462 363.516 323.224 365.158 319.723C365.879 318.187 367.939 318.032 369.616 317.768C376.728 316.648 382.045 308.575 379.814 301.728Z" fill="#ffffff" fill-rule="nonzero" opacity="1" stroke="none" vectornator:layerName="path"/>
<path d="M784.81 112.093C785.797 113.842 788.169 114.567 788.883 116.445C789.339 117.643 788.983 118.991 789.165 120.259C789.693 123.933 794.131 125.436 796.522 128.275C799.312 131.588 799.17 136.652 801.924 139.996C804.714 143.385 810.516 145.634 809.535 149.912C808.761 153.286 804.339 154 800.878 154C782.554 153.996 764.23 153.993 745.907 153.99C743.232 153.99 740.098 153.754 738.641 151.511C736.799 148.677 739.065 144.944 741.643 142.757C744.22 140.571 747.441 138.507 748.019 135.177C748.247 133.863 748.025 132.45 748.583 131.238C749.642 128.934 753.236 127.891 753.014 125.365C752.459 119.025 760.891 115.861 763.447 110.033C765.819 104.627 768.19 99.2221 770.561 93.8168C771.707 91.2047 775.947 92.5508 777.326 95.0476C778.705 97.5443 778.864 100.719 780.82 102.794C781.69 103.718 782.874 104.365 783.517 105.459C784.67 107.423 783.691 110.109 784.81 112.093M783.687 126.462C783.277 124.967 782.233 123.742 781.218 122.57C779.575 120.673 777.932 118.776 776.289 116.88C774.931 115.311 773.362 113.629 771.295 113.439C769.229 113.249 767.059 115.683 768.287 117.356C769.466 118.962 768.021 121.177 766.49 122.453C764.96 123.728 763.074 125.221 763.319 127.198C763.691 130.203 761.24 132.699 759.463 135.15C757.686 137.601 756.73 141.583 759.264 143.241C760.308 143.924 761.635 143.949 762.883 143.952C772.175 143.969 781.468 143.986 790.76 144.003C791.996 144.006 793.332 143.975 794.309 143.22C795.287 142.464 795.518 140.693 794.437 140.096C789.23 137.228 785.262 132.194 783.687 126.462Z" fill="#ffffff" fill-rule="nonzero" opacity="1" stroke="none" vectornator:layerName="path"/>
<path d="M1510.69 310.863C1510.46 307.86 1506.74 306.108 1506.31 303.127C1506.07 301.493 1506.89 299.909 1507.71 298.473C1510.05 294.359 1512.58 290.355 1515.3 286.479C1520.33 279.295 1527.13 271.961 1535.9 271.744C1538.08 271.69 1540.79 271.826 1541.82 269.908C1543.27 267.208 1546.94 266.876 1550.01 266.883C1558.93 266.903 1567.84 266.924 1576.76 266.945C1579.04 266.95 1581.78 267.208 1582.86 269.222C1584.71 272.663 1589.75 271.62 1593.66 271.685C1600.8 271.804 1606.62 277.165 1611.69 282.193C1616.82 287.284 1622.23 292.89 1623.31 300.037C1624.63 308.735 1619.2 316.884 1613.89 323.901C1608.75 330.696 1602.42 337.973 1593.92 338.467C1590.9 338.643 1587.68 337.942 1584.95 339.247C1572.77 345.075 1558.01 345.243 1545.7 339.695C1542.7 338.346 1539.3 338.403 1536.05 337.94C1522.82 336.054 1511.7 324.187 1510.69 310.863M1607.78 320.882C1608.04 313.752 1617.17 307.665 1614.1 301.223C1612.5 297.857 1607.79 295.691 1608.41 292.012C1608.84 289.403 1606.05 287.521 1603.67 286.371C1597.98 283.625 1592.29 280.879 1586.6 278.132C1584.54 277.138 1582.17 277.098 1579.88 277.077C1571.22 276.998 1562.57 276.919 1553.91 276.84C1550.87 276.812 1547.2 277.147 1545.83 279.861C1544.98 281.555 1542.64 281.61 1540.75 281.685C1533.56 281.971 1526.65 286.259 1523.21 292.58C1519.77 298.901 1519.91 307.027 1523.57 313.223C1526.79 318.67 1528.65 326.273 1534.81 327.703C1538.8 328.63 1544.26 326.878 1546.22 330.48C1547.42 332.699 1550.44 332.981 1552.96 332.988C1561.92 333.012 1570.88 333.036 1579.84 333.06C1583.12 333.068 1586.98 332.778 1588.74 330.007C1590.85 326.672 1598.08 329.138 1598.79 325.255C1599.46 321.627 1607.64 324.568 1607.78 320.882Z" fill="#ffffff" fill-rule="nonzero" opacity="1" stroke="none" vectornator:layerName="path"/>
<path d="M33.3822 313.253C61.8635 344.794 99.6722 366.354 138.197 384.294C168.895 398.59 200.498 410.943 232.754 421.255C289.358 439.351 347.054 454.031 405.423 465.187C409.461 465.959 414.988 466.373 415.604 470.437C416.366 475.462 408.741 476.574 403.788 475.435C383.752 470.829 363.715 466.222 343.678 461.616C329.825 458.431 315.97 455.246 302.182 451.79C248.598 438.359 196.04 420.837 145.117 399.426C136.246 395.696 127.42 391.846 118.773 387.623C88.3718 372.775 60.2383 353.294 35.6428 330.061C20.9344 316.168 7.03459 300.12 2.02424 280.517C-3.73851 257.971 3.33726 233.563 16.4846 214.362C29.632 195.161 48.3145 180.46 67.5813 167.409C96.5186 147.807 127.482 131.197 159.818 117.93C173.411 112.353 187.241 107.367 201.138 102.596C239.059 89.5768 277.525 78.1426 316.401 68.3334C319.678 67.5067 323.397 66.7558 326.235 68.5911C329.072 70.4263 328.995 75.9466 325.64 76.3433C311.564 79.7716 297.488 83.2004 283.498 86.9631C228.123 101.857 174.157 121.99 122.558 147.005C84.446 165.481 46.0847 188.046 23.5872 223.931C14.8228 237.911 8.65873 254.342 10.6909 270.716C12.7021 286.921 22.4387 301.134 33.3822 313.253Z" fill="#ffffff" fill-rule="nonzero" opacity="1" stroke="none" vectornator:layerName="path"/>
<path d="M1631.03 88.8537C1610.91 83.3137 1590.79 77.7737 1570.67 72.2337C1578.78 64.842 1591.47 67.0754 1602.07 69.901C1647.76 82.0732 1692.78 96.749 1736.87 113.841C1785.41 132.66 1833.7 154.985 1872.04 190.209C1891.67 208.25 1909.16 231.404 1910.42 258.039C1912.02 291.822 1887.44 321.067 1861.29 342.521C1841.41 358.837 1819.73 372.957 1796.76 384.544C1783.69 391.142 1770.21 396.914 1756.65 402.438C1673.07 436.469 1585.69 461.165 1496.66 475.919C1494.71 473.326 1495.97 469.361 1498.48 467.306C1500.99 465.251 1504.34 464.611 1507.53 464.026C1579.83 450.773 1651 431.363 1720.02 406.074C1734.1 400.918 1748.09 395.516 1761.82 389.507C1783.12 380.187 1803.78 369.411 1823.61 357.279C1853.38 339.07 1882.74 315.868 1894.34 282.955C1896.6 276.532 1898.14 269.818 1898.42 263.014C1899.15 245.397 1891.4 228.327 1880.75 214.278C1863.98 192.163 1840.32 176.353 1816.28 162.481C1775.61 139.009 1732.46 119.836 1687.78 105.382C1669.03 99.3177 1650.02 94.0846 1631.03 88.8537Z" fill="#ffffff" fill-rule="nonzero" opacity="1" stroke="none" vectornator:layerName="path"/>
<path d="M2023.37 345.564C2020.13 394.318 1975.94 429.358 1933.39 453.38C1809.37 523.401 1667.73 555.611 1526.96 577.227C1193.53 628.427 851.731 624.744 519.479 566.369C370.373 540.172 217.416 500.197 101.635 402.659C527.022 555.184 993.227 567.611 1439.93 499.231C1577.12 478.231 1715.97 448.771 1835.87 378.864C1866.07 361.25 1895.76 340.229 1913.6 310.151C1931.44 280.074 1934.64 239.002 1913.12 211.442C1966.84 240.957 2027.45 284.4 2023.37 345.564M1783.33 479.419C1784.16 480.494 1785.14 481.654 1786.49 481.829C1787.55 481.967 1788.57 481.457 1789.51 480.962C1793.08 479.092 1796.65 477.222 1800.21 475.353C1799.99 472.619 1799.08 469.943 1797.61 467.631C1794.58 462.898 1788.98 458.944 1789.5 453.352C1789.98 448.204 1796.13 445.028 1801.17 446.176C1806.21 447.324 1810.01 451.537 1812.54 456.051C1814.08 458.816 1815.34 461.844 1817.66 463.995C1819.98 466.147 1823.85 467.098 1826.29 465.078C1827.56 464.027 1828.42 462.251 1830.05 462.027C1833.31 461.581 1834.82 457.358 1833.81 454.223C1832.8 451.088 1830.19 448.79 1827.9 446.429C1825.6 444.068 1823.4 441.153 1823.58 437.865C1823.92 431.58 1832.82 429.178 1838.35 432.189C1843.88 435.199 1846.97 441.157 1850.73 446.206C1852.07 448.008 1853.64 449.804 1855.77 450.51C1857.9 451.216 1860.69 450.373 1861.38 448.236C1862.44 444.969 1869.13 446.801 1869.76 443.426C1869.93 442.524 1869.5 441.628 1869.07 440.82C1864.08 431.524 1856.77 423.489 1847.99 417.656C1846.68 416.783 1845.26 415.936 1843.69 415.809C1842.39 415.704 1841.12 416.1 1839.88 416.491C1832.56 418.799 1825.03 421.229 1819.22 426.245C1810.92 433.425 1797.87 432.163 1788.97 438.597C1786.16 440.629 1783.78 443.418 1780.5 444.539C1776.73 445.825 1772.14 444.777 1769.02 447.239C1766.49 449.226 1765.91 452.945 1766.76 456.04C1767.62 459.135 1769.63 461.758 1771.6 464.295C1775.51 469.336 1779.42 474.378 1783.33 479.419M1188.68 581.365C1187.82 577.288 1186.96 573.08 1187.75 568.989C1188.54 564.897 1191.4 560.91 1195.49 560.128C1200.11 559.244 1204.67 562.784 1206.52 567.11C1208.38 571.436 1208.16 576.332 1207.83 581.026C1207.54 585.049 1212.6 587.505 1216.58 586.806C1220.55 586.107 1223.94 583.548 1227.8 582.376C1222.36 576.9 1227.48 567.196 1224.61 560.027C1222.21 554.047 1215.16 551.678 1208.94 550.012C1205.82 549.176 1202.36 548.367 1199.47 549.807C1189.29 554.868 1177.29 553.577 1165.94 553.209C1155.79 552.879 1145.63 553.384 1135.49 553.888C1132.65 554.03 1129.38 554.395 1127.77 556.751C1126.69 558.342 1126.7 560.41 1126.75 562.335C1126.94 569.908 1127.13 577.481 1127.32 585.054C1127.35 586.111 1127.42 587.273 1128.15 588.036C1128.69 588.596 1129.47 588.823 1130.22 589.026C1134.24 590.12 1138.52 591.213 1142.49 589.981C1146.47 588.749 1149.71 584.196 1147.98 580.41C1146.09 576.294 1146.17 571.197 1148.68 567.428C1151.19 563.66 1156.23 561.596 1160.52 563.038C1164.35 564.322 1166.98 568.029 1167.95 571.945C1168.92 575.862 1168.48 579.984 1167.77 583.958C1167.15 587.52 1172.04 589.136 1175.66 589.287C1178.61 589.41 1181.68 589.512 1184.38 588.326C1187.08 587.14 1189.29 584.254 1188.68 581.365M1320.64 575.542C1328.07 578.56 1337.03 581.446 1343.63 576.885C1350.24 572.312 1359.13 574.393 1367.17 574.085C1370.08 573.973 1373.48 573.15 1374.59 570.449C1375.13 569.128 1374.97 567.639 1374.81 566.222C1374.3 561.753 1373.78 557.284 1373.27 552.815C1372.29 544.312 1371.27 535.659 1367.81 527.831C1367.11 526.256 1366.28 524.673 1364.93 523.609C1362.63 521.801 1359.27 521.907 1356.6 523.105C1353.93 524.303 1351.8 526.414 1349.73 528.481C1348.81 529.402 1347.89 530.323 1346.97 531.244C1348.77 531.83 1350.36 533.413 1350.44 535.308C1350.52 537.203 1348.62 539.071 1346.8 538.548C1339.36 536.412 1331.35 538.134 1324.06 540.728C1321.18 541.754 1318.33 542.923 1315.7 544.495C1308.65 548.709 1303.23 557.557 1306.56 565.058C1309 570.547 1315.08 573.282 1320.64 575.542M1070.6 570.979C1067.07 573.45 1062.37 573.107 1058.14 573.962C1053.92 574.817 1049.32 578.318 1050.38 582.496C1051 584.908 1053.28 586.455 1055.39 587.776C1057.87 589.329 1060.37 590.89 1063.08 591.99C1070.27 594.909 1078.34 594.363 1086.08 593.771C1087.28 593.679 1088.76 593.374 1089.08 592.213C1089.66 590.086 1092.48 589.718 1094.69 589.773C1099.69 589.898 1104.69 590.023 1109.7 590.148C1112.39 590.215 1115.33 589.019 1116.43 586.557C1117.53 584.095 1115.77 580.574 1113.08 580.673C1113.58 575.09 1113.23 569.43 1112.03 563.955C1111.72 562.578 1111.33 561.14 1110.32 560.154C1109.47 559.323 1108.3 558.926 1107.17 558.554C1097.61 555.397 1087.52 552.201 1077.63 554.111C1073.2 554.967 1069.02 556.821 1064.6 557.763C1060.78 558.581 1055.83 559.578 1055.21 563.445C1054.72 566.462 1057.73 569.141 1060.77 569.431C1063.81 569.72 1066.74 568.319 1069.43 566.86C1077.08 562.703 1086.71 562.391 1094.61 566.044C1088.15 571.305 1077.43 566.201 1070.6 570.979M1727.72 502.217C1732.03 501.52 1735.74 498.58 1740.06 498.007C1747.55 497.015 1754.45 493.275 1760.38 488.597C1761.93 487.375 1763.43 486.075 1764.65 484.519C1767.84 480.424 1768.69 474.615 1766.79 469.78C1764.89 464.946 1760.32 461.262 1755.19 460.435C1751.07 459.771 1745.92 460.418 1743.65 456.921C1739.81 460.997 1733.16 459.408 1727.61 460.195C1723.31 460.806 1719.41 463.003 1715.65 465.189C1711.25 467.746 1706.78 470.423 1703.54 474.346C1700.3 478.269 1698.47 483.738 1700.13 488.547C1702.33 494.901 1709.43 497.88 1715.77 500.122C1719.63 501.485 1723.68 502.869 1727.72 502.217M1444.23 530.251C1444.24 527.604 1440.76 526.675 1438.11 526.564C1434.62 526.418 1430.87 526.336 1427.92 528.222C1426.77 528.957 1425.81 529.954 1424.94 530.999C1421.82 534.723 1419.59 539.195 1418.5 543.932C1418.27 544.927 1418.08 545.978 1417.44 546.773C1416.02 548.535 1413.09 548.156 1411.34 546.721C1409.59 545.287 1408.62 543.141 1407.37 541.258C1404.59 537.078 1400.16 534.03 1395.26 532.933C1390.35 531.831 1385.05 532.695 1380.66 535.167C1385.84 548.271 1400.74 554.924 1407.97 567.02C1404.02 568.23 1400.2 569.88 1396.61 571.931C1394.52 573.124 1392.22 575.167 1392.92 577.468C1393.63 579.839 1396.8 580.192 1399.27 580.089C1405.59 579.827 1412.11 579.514 1417.8 576.757C1422.87 574.298 1426.99 569.919 1429.12 564.702C1432.64 556.107 1436.16 547.511 1439.68 538.916C1440.39 537.194 1441.11 535.451 1442.22 533.961C1443.08 532.812 1444.22 531.686 1444.23 530.251M1543.75 543.972C1551.82 544.382 1559.99 544.522 1567.91 542.892C1575.83 541.263 1583.57 537.722 1589 531.734C1590.99 529.543 1592.68 526.968 1593.24 524.061C1594.45 517.714 1589.78 511.407 1583.95 508.635C1578.11 505.863 1571.39 505.826 1564.93 505.982C1559.97 506.103 1555.01 506.306 1550.11 507.057C1544.44 507.926 1538.79 509.571 1534.02 512.758C1529.15 516.012 1525.42 520.722 1522.34 525.703C1521.97 526.294 1521.6 526.914 1521.53 527.605C1521.41 528.659 1521.98 529.653 1522.54 530.559C1525.15 534.848 1527.97 539.339 1532.42 541.675C1535.86 543.482 1539.87 543.775 1543.75 543.972M1245.06 572.36C1244.24 571.724 1243.93 570.646 1243.34 569.8C1242.74 568.954 1241.45 568.355 1240.71 569.084C1239.91 571.723 1239.12 574.363 1238.32 577.002C1242.62 581.773 1249.41 583.335 1255.8 583.968C1266.38 585.014 1277.31 584.156 1287.15 580.132C1290.71 578.676 1294.3 576.622 1296.08 573.208C1297.85 569.793 1296.93 564.779 1293.37 563.314C1289.81 561.849 1284.9 564.151 1282.31 561.307C1281.63 559.35 1284.98 559.156 1287.05 559.099C1290.06 559.016 1292.71 556.117 1292.5 553.107C1292.29 550.098 1289.24 547.593 1286.25 547.987C1281.88 548.563 1278.31 544.598 1274.09 543.324C1270.59 542.264 1266.82 543.129 1263.28 544.093C1256.62 545.909 1250.05 548.068 1243.61 550.557C1241.11 551.52 1238.52 552.62 1236.89 554.734C1235.26 556.848 1235.04 560.289 1237.13 561.951C1243.2 566.779 1250.93 569.472 1258.68 569.457C1265.62 569.443 1272.97 567.415 1279.23 570.396C1278.44 573.705 1274.03 574.261 1270.63 574.106C1263.03 573.761 1255.43 573.416 1247.84 573.071C1246.87 573.027 1245.83 572.958 1245.06 572.36M1001.75 564.705C1007.19 563.965 1012.69 563.685 1018.17 563.869C1020.34 563.942 1022.78 564.225 1024.11 565.938C1027.03 569.715 1032.69 569.541 1037.44 569.011C1038.35 568.91 1039.33 568.771 1039.96 568.113C1040.83 567.21 1040.66 565.724 1040.15 564.578C1038.51 560.892 1034.4 558.954 1030.44 558.172C1026.48 557.39 1022.36 557.437 1018.52 556.2C1014.81 555.002 1010.67 552.658 1007.34 554.696C1004.01 556.735 999.971 557.146 996.113 557.756C992.256 558.366 988.196 559.351 985.486 562.163C982.775 564.975 982.225 570.163 985.33 572.532C988.601 575.028 994.407 573.622 996.363 577.241C997.125 578.652 999.028 578.86 1000.63 578.896C1007.93 579.06 1015.22 579.223 1022.52 579.386C1023.93 579.418 1024.36 581.59 1023.41 582.642C1022.47 583.694 1020.91 583.874 1019.5 583.986C1012.22 584.561 1004.64 585.097 997.824 582.473C992.544 580.442 986.22 576.718 981.93 580.407C980.464 584.088 984.552 587.441 988.043 589.317C992.069 591.481 996.167 593.672 1000.64 594.596C1003.68 595.222 1006.8 595.248 1009.89 595.19C1016.44 595.067 1022.99 594.581 1029.49 593.734C1030.94 590.963 1034.28 589.918 1037.19 588.768C1040.1 587.618 1043.26 585.513 1043.27 582.386C1043.83 577.691 1038.61 574.372 1033.95 573.568C1029.29 572.764 1024.14 573.082 1020.32 570.284C1017.54 568.238 1013.71 568.886 1010.26 569.028C1006.81 569.169 1002.56 568.064 1001.75 564.705M1449.23 531.245C1457.5 536.422 1452.36 551.595 1460.28 557.295C1463.1 559.326 1466.86 559.474 1470.3 559.028C1473.65 558.595 1477.8 556.318 1476.9 553.065C1474.78 545.434 1473.26 535.851 1479.37 530.814C1482.11 528.561 1486.08 527.866 1489.37 529.184C1492.66 530.503 1495.08 533.835 1495.18 537.376C1495.27 540.719 1496.16 544.037 1497.75 546.978C1500.68 552.391 1507.7 556.549 1512.95 553.335C1518.27 550.074 1517.75 542.24 1516.07 536.23C1515.04 532.563 1513.79 528.894 1511.65 525.747C1508.12 520.58 1502.16 517.152 1495.93 516.703C1482.65 515.746 1469.55 527.336 1457.13 522.565C1454.5 525.458 1451.86 528.352 1449.23 531.245M1694.62 506.461C1696.05 504.841 1697.33 502.805 1697.02 500.668C1696.59 497.724 1693.19 495.992 1690.23 496.315C1687.27 496.638 1684.71 498.423 1682.28 500.152C1678.55 502.819 1674.82 505.486 1671.08 508.153C1669.29 509.43 1667.42 510.742 1665.26 511.134C1661.33 511.847 1657.59 509.401 1654.34 507.075C1652.62 505.837 1650.8 504.491 1650.02 502.512C1648.87 499.571 1650.51 496.097 1653.09 494.272C1655.67 492.448 1658.95 491.944 1662.1 491.78C1669.04 491.419 1676.03 492.442 1682.92 491.563C1686.53 491.102 1690.97 488.829 1690.29 485.257C1689.68 482.061 1685.57 481.2 1682.32 481.036C1670.86 480.457 1659 479.939 1648.3 484.105C1643.45 485.997 1638.96 488.828 1635.17 492.397C1631.95 495.425 1629.08 499.406 1629.31 503.82C1629.51 507.688 1632.02 511.007 1634.53 513.957C1635.46 515.052 1636.45 516.171 1637.78 516.724C1644.57 519.553 1651.66 522.437 1659 521.94C1662.72 521.688 1666.32 520.57 1669.88 519.46C1678.89 516.65 1688.38 513.543 1694.62 506.461M1624.32 528.504C1625.5 527.66 1626.73 526.757 1627.36 525.444C1628.74 522.55 1626.34 518.969 1623.28 518.008C1620.23 517.046 1616.91 517.977 1613.92 519.143C1610.22 520.591 1606.1 523.282 1606.27 527.259C1606.43 530.977 1610.62 533.455 1614.33 533.168C1618.04 532.88 1621.29 530.662 1624.32 528.504Z" fill="#ffffff" fill-rule="nonzero" opacity="1" stroke="none" vectornator:layerName="path"/>
</g>
</svg>